<svg width="29" height="29" viewBox="0 0 29 29" fill="none" xmlns="http://www.w3.org/2000/svg">
<path fill-rule="evenodd" clip-rule="evenodd" d="M1.76776 1.76777C2.74407 0.791456 4.32698 0.791456 5.30329 1.76777L26.7678 23.2322C27.7441 24.2085 27.7441 25.7915 26.7678 26.7678C25.7914 27.7441 24.2085 27.7441 23.2322 26.7678L1.76776 5.3033C0.791445 4.32699 0.791445 2.74408 1.76776 1.76777Z" fill="#F1C232"/>
<path fill-rule="evenodd" clip-rule="evenodd" d="M26.7678 1.76776C27.7441 2.74407 27.7441 4.32698 26.7678 5.30329L5.30329 26.7678C4.32698 27.7441 2.74407 27.7441 1.76776 26.7678C0.791445 25.7914 0.791446 24.2085 1.76776 23.2322L23.2322 1.76776C24.2085 0.791445 25.7914 0.791445 26.7678 1.76776Z" fill="#F1C232"/>
</svg>
