<?xml version="1.0" encoding="utf-8"?>
<!-- Generator: Adobe Illustrator 17.0.0, SVG Export Plug-In . SVG Version: 6.00 Build 0)  -->
<!DOCTYPE svg PUBLIC "-//W3C//DTD SVG 1.1//EN" "http://www.w3.org/Graphics/SVG/1.1/DTD/svg11.dtd">
<svg version="1.1" id="Capa_1" xmlns="http://www.w3.org/2000/svg" xmlns:xlink="http://www.w3.org/1999/xlink" x="0px" y="0px"
	 width="32.25px" height="32px" viewBox="0 0 32.25 32" enable-background="new 0 0 32.25 32" xml:space="preserve">
<path d="M0.667,12.917v17.208c0,0,0.25,0.417,0.625,0.333l10.833-8.583L0.667,12.917z"/>
<path d="M31.5,12.917v17.208c0,0-0.25,0.417-0.625,0.333l-10.833-8.583L31.5,12.917z"/>
<path d="M1.832,31.705h28.333l-13.25-10.789c0,0-0.833-0.667-1.75,0L1.832,31.705z"/>
<path d="M18.954,21.883l-2.011-1.618c-0.021-0.018-0.445-0.378-1.034-0.378c-0.321,0-0.643,0.107-0.956,0.319l-1.946,1.509
	L3.423,14.33V4.889C3.383,4.667,3.409,4.347,3.603,4.062C3.87,3.669,4.37,3.438,5.089,3.377l21.834-0.002
	c0.559,0.042,1.568,0.397,1.664,1.455l0.002,9.836L18.954,21.883z M15.91,18.887c0.98,0,1.652,0.59,1.68,0.615l1.386,1.115
	l8.614-6.451V4.875c-0.042-0.445-0.698-0.501-0.704-0.501L5.132,4.375C4.725,4.412,4.495,4.528,4.429,4.624l0.021,0.07L4.423,4.833
	v9.004l8.583,6.614l1.361-1.055C14.875,19.052,15.385,18.887,15.91,18.887z"/>
<polygon points="2.917,10.708 2.917,13.375 1.083,12.042 "/>
<polygon points="29.292,10.708 29.292,13.375 31.125,12.042 "/>
<path d="M13.644,2.708h4.708l-1.458-1.042c0,0-0.708-0.667-1.667,0L13.644,2.708z"/>
<path d="M24.353,8.167H7.644c-0.242,0-0.437-0.224-0.437-0.5s0.196-0.5,0.437-0.5h16.709c0.242,0,0.437,0.224,0.437,0.5
	S24.595,8.167,24.353,8.167z"/>
<path d="M24.353,11.5H7.644c-0.242,0-0.437-0.224-0.437-0.5s0.196-0.5,0.437-0.5h16.709c0.242,0,0.437,0.224,0.437,0.5
	S24.595,11.5,24.353,11.5z"/>
<path d="M24.353,14.833H7.644c-0.242,0-0.437-0.224-0.437-0.5s0.196-0.5,0.437-0.5h16.709c0.242,0,0.437,0.224,0.437,0.5
	S24.595,14.833,24.353,14.833z"/>
</svg>
