<?xml version="1.0" encoding="utf-8"?>
<!-- Generator: Adobe Illustrator 17.0.0, SVG Export Plug-In . SVG Version: 6.00 Build 0)  -->
<!DOCTYPE svg PUBLIC "-//W3C//DTD SVG 1.1//EN" "http://www.w3.org/Graphics/SVG/1.1/DTD/svg11.dtd">
<svg version="1.1" id="Capa_1" xmlns="http://www.w3.org/2000/svg" xmlns:xlink="http://www.w3.org/1999/xlink" x="0px" y="0px"
	 width="32.25px" height="32px" viewBox="0 0 32.25 32" enable-background="new 0 0 32.25 32" xml:space="preserve">
<g>
	<path fill="#010101" d="M18.931,23.193c1.186-0.155,2.293-0.354,3.339-0.836c1.578-0.726,2.686-1.854,3.211-3.531
		c0.497-1.589,0.657-3.197,0.292-4.834c-0.198-0.887-0.625-1.666-1.223-2.347c-0.13-0.149-0.149-0.265-0.085-0.45
		c0.441-1.268,0.258-2.507-0.195-3.733c-0.047-0.127-0.133-0.131-0.232-0.144c-0.548-0.075-1.048,0.106-1.545,0.295
		C21.685,7.922,20.923,8.32,20.205,8.8c-0.159,0.106-0.301,0.12-0.477,0.075c-2.4-0.615-4.801-0.617-7.201,0.003
		c-0.179,0.046-0.319,0.022-0.476-0.083c-0.966-0.641-2.002-1.131-3.127-1.426C8.895,7.362,8.867,7.35,8.838,7.344
		c-0.712-0.143-0.825-0.069-1.03,0.627c-0.326,1.105-0.388,2.208,0.014,3.308c0.042,0.116,0.038,0.196-0.05,0.294
		c-1.323,1.476-1.613,3.235-1.428,5.136c0.106,1.089,0.366,2.129,0.853,3.11c0.694,1.395,1.884,2.201,3.283,2.755
		c0.893,0.354,1.836,0.489,2.815,0.619c-0.134,0.166-0.265,0.311-0.375,0.47c-0.276,0.401-0.458,0.845-0.525,1.328
		c-0.028,0.2-0.112,0.311-0.312,0.376c-0.883,0.288-1.771,0.461-2.67,0.098c-0.658-0.266-1.124-0.76-1.477-1.363
		c-0.454-0.775-1.09-1.327-1.947-1.61c-0.318-0.105-0.644-0.141-0.975-0.043c-0.223,0.066-0.263,0.183-0.14,0.378
		c0.121,0.191,0.271,0.359,0.462,0.467c0.815,0.458,1.265,1.209,1.635,2.02c0.221,0.483,0.41,0.976,0.819,1.348
		c0.652,0.593,1.444,0.788,2.289,0.862c0.664,0.058,1.324,0.057,1.978-0.073c0.186-0.037,0.238,0.001,0.237,0.198
		c-0.002,0.833,0.018,1.667,0.022,2.5c0.003,0.735-0.486,1.078-1.184,0.834c-4.12-1.441-7.092-4.17-8.983-8.079
		c-1.265-2.614-1.696-5.393-1.327-8.259C1.585,8.72,4.787,4.567,10.207,2.14c2.38-1.066,4.914-1.351,7.507-1.089
		c3.993,0.403,7.316,2.145,9.976,5.118c2.004,2.24,3.246,4.871,3.685,7.859c0.411,2.797,0.129,5.523-0.931,8.15
		c-0.806,1.997-2.01,3.738-3.537,5.251c-1.635,1.621-3.558,2.782-5.731,3.539c-0.636,0.222-1.229-0.006-1.211-0.845
		c0.027-1.305,0.01-2.611,0.006-3.916C19.967,25.103,19.817,24.044,18.931,23.193z"/>
</g>
</svg>
