<?xml version="1.0" encoding="utf-8"?>
<!-- Generator: Adobe Illustrator 17.0.0, SVG Export Plug-In . SVG Version: 6.00 Build 0)  -->
<!DOCTYPE svg PUBLIC "-//W3C//DTD SVG 1.1//EN" "http://www.w3.org/Graphics/SVG/1.1/DTD/svg11.dtd">
<svg version="1.1" id="Capa_1" xmlns="http://www.w3.org/2000/svg" xmlns:xlink="http://www.w3.org/1999/xlink" x="0px" y="0px"
	 width="32.25px" height="32px" viewBox="0 0 32.25 32" enable-background="new 0 0 32.25 32" xml:space="preserve">
<g>
	<g id="XMLID_1_">
		<g>
			<path d="M12.442,12.771c-0.001,4.836-0.001,9.673,0,14.508c0.001,0.625,0.335,0.956,0.964,0.958c1.099,0.002,2.199,0.002,3.298,0
				c0.652-0.001,0.968-0.32,0.968-0.975c0-2.464,0.002-4.927-0.001-7.392c-0.002-0.827,0.177-1.608,0.538-2.352
				c0.487-0.999,1.373-1.5,2.567-1.436c1.017,0.055,1.795,0.63,2.107,1.692c0.181,0.614,0.284,1.273,0.292,1.913
				c0.033,2.534,0.012,5.07,0.013,7.605c0,0.642,0.307,0.943,0.957,0.944c1.099,0.002,2.199,0.001,3.298,0
				c0.789,0,1.086-0.295,1.087-1.083c0.002-2.26,0.015-4.521-0.005-6.78c-0.013-1.533-0.013-3.072-0.413-4.57
				c-0.51-1.916-1.549-3.376-3.542-3.956c-1.262-0.367-2.549-0.359-3.83-0.098c-1.258,0.256-2.275,0.898-3.068,2.041
				c0-0.43,0.002-0.763-0.001-1.097c-0.005-0.542-0.332-0.867-0.877-0.867c-1.13-0.002-2.261-0.001-3.39-0.001
				C12.761,11.825,12.443,12.136,12.442,12.771z M3.233,0.358c8.595,0,17.189,0,25.785,0c0.065,0.024,0.129,0.063,0.196,0.07
				c1.266,0.152,2.056,0.862,2.418,2.068c0.06,0.199,0.091,0.408,0.136,0.612c0,8.595,0,17.19,0,25.785
				c-0.024,0.065-0.062,0.129-0.07,0.195c-0.152,1.266-0.862,2.056-2.067,2.418c-0.2,0.06-0.409,0.092-0.613,0.136
				c-8.595,0-17.189,0-25.785,0c-0.065-0.024-0.129-0.062-0.196-0.07C1.77,31.42,0.981,30.71,0.619,29.505
				c-0.06-0.199-0.091-0.408-0.136-0.612c0-8.595,0-17.19,0-25.785c0.024-0.065,0.062-0.129,0.07-0.196
				C0.705,1.646,1.415,0.857,2.62,0.494C2.82,0.434,3.028,0.403,3.233,0.358z M7.582,3.764C5.746,3.767,4.245,5.268,4.221,7.126
				c-0.023,1.831,1.532,3.391,3.372,3.385c1.838-0.007,3.355-1.527,3.357-3.365C10.952,5.289,9.431,3.763,7.582,3.764z
				 M4.984,12.799c0,4.815,0,9.63,0,14.445c0,0.651,0.341,0.99,0.999,0.992c1.028,0.002,2.056,0.001,3.084,0
				c0.831,0,1.143-0.311,1.143-1.14c0.001-2.351,0-4.703,0-7.055c0-2.402,0.002-4.805-0.001-7.208
				c-0.001-0.666-0.341-1.008-0.985-1.009c-1.09-0.001-2.178-0.001-3.268,0C5.313,11.826,4.984,12.154,4.984,12.799z"/>
		</g>
		<g>
		</g>
	</g>
</g>
</svg>
