<?xml version="1.0" encoding="utf-8"?>
<!-- Generator: Adobe Illustrator 17.0.0, SVG Export Plug-In . SVG Version: 6.00 Build 0)  -->
<!DOCTYPE svg PUBLIC "-//W3C//DTD SVG 1.1//EN" "http://www.w3.org/Graphics/SVG/1.1/DTD/svg11.dtd">
<svg version="1.1" id="Capa_1" xmlns="http://www.w3.org/2000/svg" xmlns:xlink="http://www.w3.org/1999/xlink" x="0px" y="0px"
	 width="32.25px" height="32px" viewBox="0 0 32.25 32" enable-background="new 0 0 32.25 32" xml:space="preserve">
<g>
	<path fill="#010101" d="M17.285,0.296c0.355,0.124,0.731,0.109,1.096,0.163c3.69,0.555,6.788,2.221,9.327,4.945
		c0.047,0.05,0.094,0.1,0.171,0.182c0.051-0.606,0.253-1.103,0.696-1.473c0.621-0.518,1.324-0.63,2.061-0.312
		c0.727,0.314,1.157,0.901,1.169,1.691c0.029,1.931,0.025,3.862,0.003,5.793c-0.012,1.027-0.863,1.844-1.942,1.858
		c-1.87,0.025-3.74,0.023-5.61,0.001c-1.035-0.013-1.853-0.775-1.942-1.731c-0.094-1.017,0.515-1.887,1.491-2.134
		c0.201-0.051,0.405-0.05,0.609-0.051c0.426-0.002,0.851-0.001,1.273-0.001c0.031-0.124-0.047-0.174-0.093-0.234
		c-2.124-2.806-4.934-4.415-8.441-4.717c-5.26-0.453-9.931,2.425-11.95,7.313c-0.304,0.736-0.806,1.228-1.609,1.334
		c-0.785,0.104-1.43-0.176-1.884-0.83c-0.387-0.558-0.469-1.179-0.213-1.807c1.815-4.455,4.993-7.5,9.515-9.136
		c1.185-0.429,2.415-0.671,3.669-0.792c0.056-0.005,0.127,0.018,0.152-0.064C15.65,0.296,16.468,0.296,17.285,0.296z"/>
	<path fill="#010101" d="M0.422,20.593c0.009-0.004,0.024-0.006,0.027-0.013c0.524-1.233,0.987-1.54,2.326-1.54
		c1.717,0,3.434-0.008,5.15,0.003c1.206,0.007,2.048,0.889,2.004,2.069c-0.038,1.028-0.886,1.821-1.987,1.85
		c-0.417,0.011-0.834,0.002-1.248,0.002c-0.03,0.118,0.052,0.165,0.099,0.225c2.12,2.689,4.881,4.231,8.294,4.522
		c5.265,0.449,9.923-2.421,11.95-7.316c0.305-0.736,0.807-1.226,1.611-1.333c0.759-0.101,1.394,0.162,1.848,0.784
		c0.429,0.588,0.505,1.242,0.223,1.915c-2.038,4.874-5.575,8.14-10.701,9.41c-5.995,1.485-11.188-0.151-15.489-4.59
		c-0.047-0.048-0.093-0.097-0.176-0.185c-0.012,0.241-0.013,0.43-0.055,0.617c-0.195,0.857-0.909,1.474-1.799,1.54
		c-0.825,0.062-1.642-0.468-1.95-1.26c-0.035-0.089-0.021-0.205-0.127-0.26C0.422,24.885,0.422,22.739,0.422,20.593z"/>
</g>
</svg>
