<svg width="38" height="32" viewBox="0 0 38 32" fill="none" xmlns="http://www.w3.org/2000/svg">
<path d="M3.36185 6.18193L6.735 14.2788L14.8319 10.9056" stroke="#191919" stroke-width="5" stroke-linecap="round"/>
<mask id="path-2-inside-1_123:12" fill="white">
<path d="M33.7683 9.42835C32.5496 6.40893 30.3856 3.86553 27.6003 2.17898C24.815 0.492421 21.5584 -0.246542 18.3179 0.0727358C15.0775 0.392013 12.0277 1.75235 9.62517 3.95006C7.22262 6.14778 5.5966 9.06461 4.99058 12.2638L10.0436 13.221C10.4428 11.1137 11.5138 9.19242 13.0964 7.7448C14.6789 6.29718 16.6878 5.40114 18.8222 5.19083C20.9567 4.98053 23.1018 5.46728 24.9364 6.5782C26.7711 7.68912 28.1965 9.36444 28.9993 11.3533L33.7683 9.42835Z"/>
</mask>
<path d="M33.7683 9.42835C32.5496 6.40893 30.3856 3.86553 27.6003 2.17898C24.815 0.492421 21.5584 -0.246542 18.3179 0.0727358C15.0775 0.392013 12.0277 1.75235 9.62517 3.95006C7.22262 6.14778 5.5966 9.06461 4.99058 12.2638L10.0436 13.221C10.4428 11.1137 11.5138 9.19242 13.0964 7.7448C14.6789 6.29718 16.6878 5.40114 18.8222 5.19083C20.9567 4.98053 23.1018 5.46728 24.9364 6.5782C26.7711 7.68912 28.1965 9.36444 28.9993 11.3533L33.7683 9.42835Z" stroke="#191919" stroke-width="20" stroke-linejoin="round" mask="url(#path-2-inside-1_123:12)"/>
<path d="M35.2972 25.8182L31.9241 17.7213L23.8272 21.0945" stroke="#191919" stroke-width="5" stroke-linecap="round"/>
<mask id="path-4-inside-2_123:12" fill="white">
<path d="M4.89074 22.5718C6.10949 25.5912 8.2735 28.1346 11.0588 29.8211C13.844 31.5077 17.1007 32.2467 20.3411 31.9274C23.5815 31.6081 26.6313 30.2478 29.0339 28.0501C31.4364 25.8523 33.0625 22.9355 33.6685 19.7363L28.6155 18.7791C28.2163 20.8864 27.1452 22.8077 25.5627 24.2553C23.9801 25.7029 21.9713 26.599 19.8368 26.8093C17.7024 27.0196 15.5573 26.5328 13.7226 25.4219C11.888 24.311 10.4626 22.6357 9.65979 20.6468L4.89074 22.5718Z"/>
</mask>
<path d="M4.89074 22.5718C6.10949 25.5912 8.2735 28.1346 11.0588 29.8211C13.844 31.5077 17.1007 32.2467 20.3411 31.9274C23.5815 31.6081 26.6313 30.2478 29.0339 28.0501C31.4364 25.8523 33.0625 22.9355 33.6685 19.7363L28.6155 18.7791C28.2163 20.8864 27.1452 22.8077 25.5627 24.2553C23.9801 25.7029 21.9713 26.599 19.8368 26.8093C17.7024 27.0196 15.5573 26.5328 13.7226 25.4219C11.888 24.311 10.4626 22.6357 9.65979 20.6468L4.89074 22.5718Z" stroke="#191919" stroke-width="20" stroke-linejoin="round" mask="url(#path-4-inside-2_123:12)"/>
</svg>
