<?xml version="1.0" encoding="utf-8"?>
<!-- Generator: Adobe Illustrator 17.0.0, SVG Export Plug-In . SVG Version: 6.00 Build 0)  -->
<!DOCTYPE svg PUBLIC "-//W3C//DTD SVG 1.1//EN" "http://www.w3.org/Graphics/SVG/1.1/DTD/svg11.dtd">
<svg version="1.1" id="Capa_1" xmlns="http://www.w3.org/2000/svg" xmlns:xlink="http://www.w3.org/1999/xlink" x="0px" y="0px"
	 width="29px" height="29px" viewBox="0 0 29 29" enable-background="new 0 0 29 29" xml:space="preserve">
<path fill="#191919" d="M1.768,1.768c0.976-0.976,2.559-0.976,3.536,0l21.465,21.464c0.976,0.976,0.976,2.559,0,3.536
	c-0.976,0.976-2.559,0.976-3.536,0L1.768,5.303C0.791,4.327,0.791,2.744,1.768,1.768z"/>
<path fill="#191919" d="M26.768,1.768c0.976,0.976,0.976,2.559,0,3.536L5.303,26.768c-0.976,0.976-2.559,0.976-3.536,0
	c-0.976-0.976-0.976-2.559,0-3.536L23.232,1.768C24.208,0.791,25.791,0.791,26.768,1.768z"/>
</svg>
