<?xml version="1.0" encoding="utf-8"?>
<!-- Generator: Adobe Illustrator 17.0.0, SVG Export Plug-In . SVG Version: 6.00 Build 0)  -->
<!DOCTYPE svg PUBLIC "-//W3C//DTD SVG 1.1//EN" "http://www.w3.org/Graphics/SVG/1.1/DTD/svg11.dtd">
<svg version="1.1" id="Capa_1" xmlns="http://www.w3.org/2000/svg" xmlns:xlink="http://www.w3.org/1999/xlink" x="0px" y="0px"
	 width="32.25px" height="32px" viewBox="0 0 32.25 32" enable-background="new 0 0 32.25 32" xml:space="preserve">
<path d="M27.206,21.875H5.071c-0.321,0-0.579-0.224-0.579-0.5c0-0.276,0.26-0.5,0.579-0.5h22.135c0.321,0,0.579,0.224,0.579,0.5
	C27.785,21.651,27.527,21.875,27.206,21.875z"/>
<path d="M27.206,25.208H5.071c-0.321,0-0.579-0.224-0.579-0.5c0-0.276,0.26-0.5,0.579-0.5h22.135c0.321,0,0.579,0.224,0.579,0.5
	C27.785,24.984,27.527,25.208,27.206,25.208z"/>
<path d="M27.206,28.541H5.071c-0.321,0-0.579-0.224-0.579-0.5c0-0.276,0.26-0.5,0.579-0.5h22.135c0.321,0,0.579,0.224,0.579,0.5
	C27.785,28.317,27.527,28.541,27.206,28.541z"/>
<g id="XMLID_1_">
	<g>
		<path d="M31.548,29.57c0,0,0.05,1.51-1.66,1.51H2.238c0,0-1.46-0.01-1.51-1.51v-9.78v-7.88V2.47c0,0-0.05-1.51,1.66-1.51h27.65
			c0,0,1.46,0.01,1.51,1.51v9.78v7.88V29.57z M30.698,29.57V2.5c-0.01-0.44-0.24-0.67-0.66-0.69H2.388c-0.2,0-0.81,0-0.81,0.66
			v27.07c0.01,0.44,0.24,0.67,0.66,0.69h27.65C30.088,30.23,30.698,30.23,30.698,29.57z"/>
	</g>
	<g>
	</g>
</g>
<g>
	<path d="M8.895,18.567c-0.631-0.683-0.945-1.648-0.945-2.893V7.109c0-1.245,0.315-2.21,0.945-2.893
		c0.629-0.683,1.545-1.025,2.745-1.025c1.199,0,2.115,0.342,2.745,1.025c0.63,0.684,0.945,1.648,0.945,2.893v1.686h-2.369V6.949
		c0-0.987-0.417-1.481-1.253-1.481c-0.835,0-1.252,0.494-1.252,1.481v8.907c0,0.972,0.417,1.458,1.252,1.458
		c0.836,0,1.253-0.486,1.253-1.458v-2.437h2.369v2.255c0,1.245-0.315,2.21-0.945,2.893c-0.63,0.684-1.545,1.025-2.745,1.025
		C10.44,19.592,9.524,19.251,8.895,18.567z"/>
	<path d="M16.173,3.419h2.528l1.641,12.37h0.046l1.64-12.37h2.301l-2.414,15.946h-3.327L16.173,3.419z"/>
</g>
</svg>
