<?xml version="1.0" encoding="utf-8"?>
<!-- Generator: Adobe Illustrator 17.0.0, SVG Export Plug-In . SVG Version: 6.00 Build 0)  -->
<!DOCTYPE svg PUBLIC "-//W3C//DTD SVG 1.1//EN" "http://www.w3.org/Graphics/SVG/1.1/DTD/svg11.dtd">
<svg version="1.1" id="Capa_1" xmlns="http://www.w3.org/2000/svg" xmlns:xlink="http://www.w3.org/1999/xlink" x="0px" y="0px"
	 width="32px" height="32px" viewBox="0 0 32 32" enable-background="new 0 0 32 32" xml:space="preserve">
<g>
	<path d="M16.676,15.894c-1.781,0.584-3.567,1.17-5.299,1.881c-1.952,0.802-3.656,2.045-5.309,3.344
		c-0.564,0.443-1.106,0.917-1.689,1.335c-0.155,0.111-0.483,0.159-0.621,0.068c-0.139-0.092-0.24-0.422-0.188-0.597
		c1.671-5.572,5.031-9.493,10.835-10.994c2.605-0.674,5.275-0.884,7.944-1.102c2.283-0.186,4.575-0.321,6.786-0.99
		C29.767,8.648,30.381,8.395,31,8.161c0.268-0.101,0.528-0.202,0.752,0.072c0.227,0.277,0.085,0.515-0.089,0.745
		c-1.437,1.902-2.515,4.022-3.681,6.088c-1.277,2.262-2.768,4.347-4.738,6.074c-3.358,2.943-7.213,4.56-11.714,4.612
		c-1.542,0.018-3.083,0.185-4.623,0.313c-0.422,0.035-0.84,0.159-1.25,0.277c-0.141,0.041-0.284,0.166-0.37,0.291
		c-0.878,1.272-1.511,2.659-1.919,4.149c-0.055,0.199-0.096,0.406-0.18,0.593c-0.133,0.3-0.392,0.433-0.71,0.375
		c-0.337-0.061-0.536-0.285-0.541-0.635c-0.002-0.162,0.035-0.329,0.077-0.487c0.862-3.205,2.605-5.883,4.938-8.199
		c2.795-2.776,6.193-4.581,9.799-6.045C17.746,15.982,17.668,15.569,16.676,15.894z"/>
	<path d="M7.046,13.837c-1.025-0.782-1.864-1.707-2.626-2.71C3.131,9.429,2.372,7.486,1.728,5.478
		C1.232,3.93,0.666,2.405,0.154,0.861c-0.058-0.174,0-0.416,0.084-0.588C0.265,0.217,0.592,0.22,0.701,0.302
		C2.253,1.473,4.055,2.076,5.88,2.636c1.911,0.587,3.827,1.159,5.631,2.048c2.042,1.006,3.561,2.528,4.619,4.529
		c0.031,0.059,0.055,0.122,0.103,0.231c-0.219,0.051-0.415,0.094-0.611,0.141c-0.804,0.194-1.612,0.374-2.409,0.593
		c-0.268,0.074-0.451,0.029-0.682-0.115c-1.358-0.845-1.766-0.606-0.374,0.45C10.159,11.315,8.501,12.407,7.046,13.837z"/>
</g>
</svg>
