<svg width="32" height="32" viewBox="0 0 32 32" fill="none" xmlns="http://www.w3.org/2000/svg">
<path d="M0.386418 4.38926C1.73006 5.75827 3.01605 7.0683 4.29487 8.37119C5.69395 6.97041 6.99307 5.66938 8.34712 4.31346C7.0625 3.05799 5.75365 1.77872 4.32813 0.385575C5.93447 -0.182253 7.35726 -0.0908154 8.75139 0.449989C11.4883 1.51171 13.0987 4.23494 12.6778 7.14971C12.585 7.79266 12.7513 8.17829 13.1905 8.61423C19.1672 14.5473 25.1262 20.498 31.0896 26.4445C32.2971 27.6486 32.3022 28.3271 31.1126 29.5156C30.5912 30.0367 30.0704 30.5586 29.5462 31.077C28.4999 32.1117 27.7403 32.1207 26.7063 31.0933C23.6087 28.0154 20.5158 24.9329 17.4212 21.852C14.5275 18.9713 11.6202 16.1039 8.75361 13.1966C8.24358 12.6794 7.78046 12.5299 7.05824 12.6285C2.57954 13.2396 -1.06298 8.81342 0.386418 4.38926Z" fill="#191919"/>
<path d="M9.14075 18.1915C10.6998 19.7461 12.1632 21.2054 13.6739 22.7114C13.5207 22.8752 13.3608 23.0569 13.1898 23.2274C10.5797 25.8282 7.96939 28.4289 5.35664 31.027C4.23987 32.1375 3.51474 32.135 2.39592 31.025C1.79224 30.4261 1.18243 29.8331 0.591376 29.2223C-0.191577 28.4131 -0.204541 27.5684 0.597005 26.7598C3.42979 23.9021 6.27845 21.0596 9.14075 18.1915Z" fill="#191919"/>
<path d="M28.7586 0.0136719C29.8463 1.09749 30.8689 2.11638 31.9591 3.20258C30.9515 5.20757 29.9381 7.24689 28.889 9.26802C28.8073 9.4254 28.4541 9.56477 28.2654 9.52619C26.1632 9.09671 24.7008 10.0575 23.4758 11.6167C23.0925 12.1046 22.6341 12.5339 22.2343 12.9641C21.1177 11.8517 20.0765 10.8145 18.9786 9.72062C19.9059 8.8161 20.8407 7.86723 21.8198 6.96646C22.2525 6.56842 22.5145 6.14506 22.388 5.5655C21.9815 3.70277 22.8033 2.69985 24.542 2.06659C25.995 1.53751 27.341 0.716956 28.7586 0.0136719Z" fill="#191919"/>
</svg>
